# xmcd
#
# Track frame offsets: 
#        150
#        14367
#        27955
#        40222
#        50392
#        60802
#        69557
#        81327
#        91760
#        104275
#        116545
#        127025
#        137587
#        158460
#        168415
#        172735
#        180227
#        188057
#        197350
#        199015
#        212920
#        220030
#        231137
#        234062
#        243850
#        249835
#        258567
#        272747
#        277570
#        284440
#        296950
#        306992
#        313232
#        322832
#
# Disc length: 4589 seconds
#
# Revision: 0
# Processed by: cddbd v1.4PL0 Copyright (c) Steve Scherf et al.
# Submitted via: ExactAudioCopy v0.90b3
#
DISCID=c911eb22
DTITLE=Grandpa Jones - Everybody's Grandpa - Disc 05
DYEAR=1900
DGENRE=Country
TTITLE0=The Valley Of The Never Do No Good (1971)
TTITLE1=Four Stone Walls (1973)
TTITLE2=A Dollar Short (1971)
TTITLE3=Coal Camp (1972)
TTITLE4=Here I Am Makin' Plans (1972)
TTITLE5=Green Hills Of Home (1973)
TTITLE6=Are You Sleeping Daddy Darlin' (1973)
TTITLE7=Nashville On My Mind (1973)
TTITLE8=The Mountain Man (1973)
TTITLE9=Deep Dark Corner Of My Mind (1973)
TTITLE10=Baby-O (1973)
TTITLE11=My Old Lady (1973)
TTITLE12=Brown Girl And Fair Eleanor (1973)
TTITLE13=Four Winds A-Blowin' (1973)
TTITLE14=Intro (1970)
TTITLE15=Fix Me A Pallet (1970)
TTITLE16=Joke (1970)
TTITLE17=Dooley (1970)
TTITLE18=Joke (1970)
TTITLE19=The Air, The Sunshine, And The Rain (1970)
TTITLE20=Joke (1970)
TTITLE21=Castles In The Air (1970)
TTITLE22=Joke (1970)
TTITLE23=Old Rattler's Pup (1970)
TTITLE24=Joke (1970)
TTITLE25=My Bonnie Lies Over The Ocean (1970)
TTITLE26=Rocky Top (1970)
TTITLE27=Joke (1970)
TTITLE28=I Don't Love Nobody (1970)
TTITLE29=John Henry (1970)
TTITLE30=The Last Ol' Shevel (1970)
TTITLE31=Joke (1970)
TTITLE32=Southern Bound (1970)
TTITLE33=15 Cents Is All I Got (1970)
EXTD=
EXTT0=
EXTT1=
EXTT2=
EXTT3=
EXTT4=
EXTT5=
EXTT6=
EXTT7=
EXTT8=
EXTT9=
EXTT10=
EXTT11=
EXTT12=
EXTT13=
EXTT14=
EXTT15=
EXTT16=
EXTT17=
EXTT18=
EXTT19=
EXTT20=
EXTT21=
EXTT22=
EXTT23=
EXTT24=
EXTT25=
EXTT26=
EXTT27=
EXTT28=
EXTT29=
EXTT30=
EXTT31=
EXTT32=
EXTT33=
PLAYORDER=
